<?xml version="1.0" encoding="UTF-8" standalone="no"?>
<!-- Created with Inkscape (http://www.inkscape.org/) -->

<svg
   xmlns:dc="http://purl.org/dc/elements/1.1/"
   xmlns:cc="http://creativecommons.org/ns#"
   xmlns:rdf="http://www.w3.org/1999/02/22-rdf-syntax-ns#"
   xmlns:svg="http://www.w3.org/2000/svg"
   xmlns="http://www.w3.org/2000/svg"
   xmlns:sodipodi="http://sodipodi.sourceforge.net/DTD/sodipodi-0.dtd"
   xmlns:inkscape="http://www.inkscape.org/namespaces/inkscape"
   width="118.52969mm"
   height="182.67001mm"
   viewBox="0 0 118.52969 182.67001"
   version="1.1"
   id="svg1080"
   inkscape:version="0.92.3 (2405546, 2018-03-11)"
   sodipodi:docname="UPR-Logo.svg">
  <defs
     id="defs1074" />
  <sodipodi:namedview
     id="base"
     pagecolor="#ffffff"
     bordercolor="#666666"
     borderopacity="1.0"
     inkscape:pageopacity="0.0"
     inkscape:pageshadow="2"
     inkscape:zoom="0.7"
     inkscape:cx="-319.28246"
     inkscape:cy="376.56407"
     inkscape:document-units="mm"
     inkscape:current-layer="layer1"
     showgrid="false"
     fit-margin-top="0"
     fit-margin-left="0"
     fit-margin-right="0"
     fit-margin-bottom="0"
     inkscape:window-width="1920"
     inkscape:window-height="1017"
     inkscape:window-x="-8"
     inkscape:window-y="-8"
     inkscape:window-maximized="1" />
  <metadata
     id="metadata1077">
    <rdf:RDF>
      <cc:Work
         rdf:about="">
        <dc:format>image/svg+xml</dc:format>
        <dc:type
           rdf:resource="http://purl.org/dc/dcmitype/StillImage" />
        <dc:title />
      </cc:Work>
    </rdf:RDF>
  </metadata>
  <g
     inkscape:label="Ebene 1"
     inkscape:groupmode="layer"
     id="layer1"
     transform="translate(-48.080395,-51.450714)">
    <path
       inkscape:connector-curvature="0"
       style="fill:#840032;fill-opacity:1;stroke:none;stroke-width:0.2261257;stroke-linecap:square;stroke-linejoin:miter;stroke-miterlimit:4;stroke-dasharray:none;stroke-opacity:1"
       d="m 151.4533,63.109614 c 1.8552,9.53804 0.89925,19.012219 -3.3158,28.41205 -0.11173,-5.755928 -1.30355,-11.50516 -2.49134,-16.88776 -1.00092,3.320249 -1.533,6.67827 -4.26132,9.862091 0.10067,-3.52783 0.33584,-7.086361 -1.44317,-10.183881 -2.5673,20.908139 -11.6448,50.321216 -34.21794,51.378536 0.59148,-1.2546 -1.25961,-3.9498 0.40431,-6.49669 1.84486,-2.82382 5.1208,-4.76577 5.96112,-6.0291 1.70447,-2.78295 2.54272,-5.70867 1.58779,-8.92889 -2.88754,0.11029 -4.37785,0.77643 -7.26542,0.88679 -4.11221,-2.33506 -7.329313,-3.30168 -9.037903,-1.9594 3.361063,1.79321 5.914833,3.91252 6.811933,6.70059 l -2.78928,-0.56043 c -2.719523,0.14322 -4.163993,-1.76659 -5.887583,-3.22585 0.48702,1.92046 0.36424,5.05963 4.513583,6.33952 -2.397873,3.44977 -2.990583,7.14021 -3.783583,11.15895 -29.16174,-5.46233 -16.26341,-47.500406 -10.6938,-57.170286 -6.89177,4.13048 -12.00939,10.40536 -15.55911,17.138379 1.77233,-9.979729 10.80474,-22.932229 18.52212,-32.093519 -10.64466,4.70529 -20.99869,19.57659 -23.95069,31.12212 0.94226,-11.34636 5.7351,-21.1799 10.39647,-31.06415 -9.40958,8.91556 -17.04009,18.33679 -16.80451,29.992751 -1.53826,-4.277981 -2.90777,-8.590571 -3.70003,-13.022301 -0.99249,4.67016 -1.72325,9.34277 -1.85261,14.02336 l -1.7149,1.50721 c -0.37911,1.887929 0.98466,3.740531 1.97805,5.600729 l -1.90213,1.194472 -1.45479,-3.022981 c -3.12083,10.759289 -0.0873,13.102986 2.94444,19.560856 l -3.22631,-0.99369 c -1.51997,2.15092 -1.56217,5.07562 0.12397,7.02836 l 7.45426,3.953 1.7405,3.9965 -8.0129,-2.49981 c -0.49705,1.5618 -0.3156,2.97645 0.76091,4.42402 12.71904,19.22203 16.15421,10.21228 32.99653,22.93746 -1.45905,5.2555 -5.14296,14.80231 -5.69831,23.69173 3.44171,-15.12252 9.66208,-21.00404 10.64832,-21.78574 -0.31634,1.21266 -0.66886,3.4847 -0.65112,4.72783 2.51313,-4.1997 5.20258,-8.74078 6.42962,-14.02947 1.17961,6.24072 -0.18051,9.31607 -2.04143,17.11324 -1.18659,5.71558 2.15363,10.50159 2.15363,10.50159 -0.34217,-4.44299 0.036,-6.81081 2.67845,-9.34774 2.642473,-2.53693 8.083423,-7.5517 10.567833,-15.72914 1.89134,1.10131 3.06116,7.57789 2.48642,9.63767 17.02523,-4.75109 25.29804,-0.50569 37.39849,-10.7243 2.18456,-1.4372 3.25246,-2.81607 2.84305,-4.16651 l -8.55789,-5.25906 12.14143,0.51856 c 2.70452,-1.01123 4.18473,-2.45571 4.40536,-4.34576 l -13.3726,-2.26625 c 11.11407,0.93593 17.1983,-4.27184 20.89466,-10.63364 -7.03144,3.76896 -6.25339,3.10489 -13.63493,3.16793 7.51265,-2.08166 6.6919,-2.67161 12.15292,-6.34713 0.0792,-1.81218 -0.17606,-3.88835 -3.03046,-3.92951 2.38602,-3.15428 3.24659,-6.59929 2.56236,-10.337465 -2.00411,2.429529 -4.43386,4.220005 -7.67179,4.792435 2.7827,-5.483466 4.51847,-11.321685 4.56502,-17.731515 -2.39565,4.445011 -2.75264,4.345149 -6.79119,8.00825 3.70435,-14.155681 3.26372,-19.891261 -3.30866,-28.605091 z m -43.21535,84.002246 c -1.97814,8.22433 -11.343233,12.51355 -11.334903,17.34481 0.008,4.83131 8.081383,9.86047 15.377943,13.57733 -5.48517,-4.91333 -18.782513,-12.35772 -5.53717,-15.56657 -2.43927,-0.93757 -4.57133,-0.19819 -6.7282,0.40891 3.69508,-6.69437 9.23154,-6.16698 8.22233,-15.76448 z m -15.872763,3.12647 c -20.48203,44.68611 29.064513,47.29649 31.961913,83.88239 3.94081,-16.5145 -3.59689,-26.48235 -8.71594,-33.19685 5.84012,1.43872 8.01211,5.47486 11.12265,8.97471 -7.27448,-33.96524 -45.725013,-21.72964 -34.368623,-59.66025 z m -5.23527,2.82612 c 0,0 -9.9076,16.34186 -6.33479,32.30711 3.57283,15.96537 24.972243,23.42354 24.972243,23.42354 C 84.885607,192.90687 81.941557,173.65001 87.129917,153.06445 Z m 5.93145,13.841 c 8.927883,22.16397 32.442623,11.89191 37.638443,50.81719 5.45862,-14.41489 1.97986,-27.0545 -9.95379,-38.01501 1.83134,3.37808 3.63068,6.75964 4.63808,10.23543 -5.4877,-7.78127 -22.23429,-10.73484 -32.322733,-23.03761 z"
       id="path938" />
  </g>
</svg>
